<?xml version="1.0" encoding="UTF-8"?>
<!DOCTYPE svg PUBLIC "-//W3C//DTD SVG 1.1//EN" "http://www.w3.org/Graphics/SVG/1.1/DTD/svg11.dtd">
<!-- Creator: CorelDRAW -->
<svg xmlns="http://www.w3.org/2000/svg" xml:space="preserve" width="154.085mm" height="122.924mm" style="shape-rendering:geometricPrecision; text-rendering:geometricPrecision; image-rendering:optimizeQuality; fill-rule:evenodd; clip-rule:evenodd"
viewBox="0 0 140.229 111.87"
 xmlns:xlink="http://www.w3.org/1999/xlink">
 <defs>
  <style type="text/css">
   <![CDATA[
    .fil1 {fill:#00458D}
    .fil0 {fill:#00458D;fill-rule:nonzero}
   ]]>
  </style>
 </defs>
 <g id="Layer_x0020_1">
  <metadata id="CorelCorpID_0Corel-Layer"/>
  <g id="_145659448">
   <path id="_145659616" class="fil0" d="M47.3103 111.87l3.27518 0 5.11744 -14.6214 0.0876402 0 0 14.6214 4.82504 0 0 -20.47 -6.78415 0 -4.88364 14.0658 -4.88346 -14.0658 -6.78434 0 0 20.47 4.82504 0 0 -14.6214 0.0878222 0 5.11744 14.6214zm21.3105 -20.47l-7.66647 20.47 5.09305 0 1.28676 -3.83087 7.42758 0 1.31597 3.83087 5.11744 0 -7.69086 -20.47 -4.88346 0zm-0.23398 13.1591l2.69036 -7.80762 2.63185 7.80762 -5.32221 0zm15.4912 -9.18211l0 16.4929 4.82504 0 0 -16.4929 6.17031 0 0 -3.97703 -17.1947 0 0 3.97703 6.19934 0zm16.7195 9.24072l0 -13.2177 -4.82504 0 0 20.47 4.82504 0 8.15873 -13.3639 0 13.3639 4.82494 0 0 -20.47 -4.82494 0 -8.15873 13.2177z"/>
   <path id="_145659544" class="fil1" d="M0 57.6986c66.1026,-0.161356 93.6698,-56.2632 140.229,-53.0195 -43.9797,5.69853 -58.1268,46.8751 -65.1336,53.2535l-75.0953 -0.23398z"/>
   <path id="_145659472" class="fil1" d="M35.7113 51.3199c-1.1213,-4.9823 -2.72376,-9.91363 -2.46212,-15.0138 0.646426,-12.6007 8.08265,-24.5207 18.9481,-30.8589 4.57722,-2.66998 9.70986,-4.42888 14.9628,-5.12445 10.1325,-1.34172 20.6879,1.54631 28.8032,7.73482 6.24421,4.7616 11.0772,11.3707 13.5527,18.8439 3.28464,9.91618 2.31578,21.0003 -2.44119,30.2697 -3.49605,6.81255 -9.00192,12.6114 -15.7048,16.3384 -4.63274,2.57588 -9.80305,4.2263 -15.0708,4.81384 -10.0266,1.1183 -20.4122,-1.93327 -28.2727,-8.24482 -3.91423,-3.14285 -7.26995,-7.05235 -9.61704,-11.49l-2.87029 -7.2118 0.172095 -0.0569707zm0 0l0.172095 -0.0569707c2.41898,4.36363 4.45382,9.00401 7.81099,12.6945 4.80347,5.28044 11.1675,9.1529 18.0683,10.9795 7.06664,1.87057 14.5615,1.61957 21.481,-0.753724 4.59934,-1.57752 8.8897,-4.10316 12.5289,-7.32829 6.99384,-6.19816 11.4388,-15.2287 12.0748,-24.5534 0.494535,-7.25102 -1.21104,-14.6117 -4.76042,-20.9516 -4.59351,-8.20487 -12.4821,-14.4055 -21.5038,-17.0189 -4.55347,-1.31906 -9.38697,-1.78575 -14.0982,-1.25754 -4.91814,0.551414 -9.74536,2.08771 -14.0761,4.48312 -8.37233,4.63055 -14.699,12.653 -17.4359,21.8 -1.38987,4.64502 -1.83953,9.57117 -1.46604,14.4053l1.20439 7.5579z"/>
  </g>
 </g>
</svg>
